<svg version="1.1" xmlns="http://www.w3.org/2000/svg" xmlns:xlink="http://www.w3.org/1999/xlink" width="10" height="19"><defs/><g><path fill="rgb(255,255,255)" stroke="none" paint-order="stroke fill markers" fill-rule="evenodd" d=" M 7.978630065917969 1.9403457641601562 C 7.978630065917969 1.9403457641601562 6.328020095825195 1.9403457641601562 6.328020095825195 1.9403457641601562 C 6.328020095825195 1.9403457641601562 3.0148696899414062 1.692509651184082 3.0148696899414062 5.184979438781738 C 3.0148696899414062 5.931792259216309 3.0148696899414062 6.991429328918457 3.0148696899414062 6.991429328918457 C 3.0148696899414062 6.991429328918457 1.0151004791259766 6.991429328918457 1.0151004791259766 6.991429328918457 C 1.0151004791259766 6.991429328918457 1.0211944580078125 8.997983932495117 1.0211944580078125 8.997983932495117 C 1.0211944580078125 8.997983932495117 3.013925552368164 8.997983932495117 3.013925552368164 8.997983932495117 C 3.013925552368164 8.997983932495117 2.984485626220703 17.01171875 2.984485626220703 17.01171875 C 2.984485626220703 17.01171875 6.013965606689453 17.01171875 6.013965606689453 17.01171875 C 6.013965606689453 17.01171875 6.013965606689453 9.029192924499512 6.013965606689453 9.029192924499512 C 6.013965606689453 9.029192924499512 7.752208709716797 8.997983932495117 7.752208709716797 8.997983932495117 C 7.752208709716797 8.997983932495117 8.37611198425293 6.991429328918457 8.37611198425293 6.991429328918457 C 8.37611198425293 6.991429328918457 5.981607437133789 6.991429328918457 5.981607437133789 6.991429328918457 C 5.981607437133789 6.991429328918457 5.981607437133789 4.926495552062988 5.981607437133789 4.926495552062988 C 5.981607437133789 4.926495552062988 5.956974029541016 4.010419845581055 7.030630111694336 4.010419845581055 C 7.030630111694336 4.010419845581055 7.9686737060546875 4.010419845581055 7.9686737060546875 4.010419845581055 C 7.9686737060546875 4.010419845581055 7.978630065917969 1.9403457641601562 7.978630065917969 1.9403457641601562 Z"/></g></svg>