<svg version="1.1" xmlns="http://www.w3.org/2000/svg" xmlns:xlink="http://www.w3.org/1999/xlink" width="19" height="19"><defs/><g><path fill="rgb(255,255,255)" stroke="none" paint-order="stroke fill markers" fill-rule="evenodd" d=" M 5.464040756225586 2.918315887451172 C 5.464040756225586 3.8920364379882812 4.764177322387695 4.608741760253906 3.567525863647461 4.608741760253906 C 2.4419422149658203 4.608741760253906 1.6874046325683594 3.8920364379882812 1.6874046325683594 2.918315887451172 C 1.6874046325683594 1.920729637145996 2.4381656646728516 1.213937759399414 3.587352752685547 1.213937759399414 C 4.736797332763672 1.213937759399414 5.440866470336914 1.920729637145996 5.464040756225586 2.918315887451172 Z M 1.9957084655761719 17.010093688964844 C 1.9957084655761719 17.010093688964844 1.9957084655761719 5.987077713012695 1.9957084655761719 5.987077713012695 C 1.9957084655761719 5.987077713012695 5.006906509399414 5.987077713012695 5.006906509399414 5.987077713012695 C 5.006906509399414 5.987077713012695 5.006906509399414 17.010093688964844 5.006906509399414 17.010093688964844 C 5.006906509399414 17.010093688964844 1.9957084655761719 17.010093688964844 1.9957084655761719 17.010093688964844 Z M 7.015172958374023 5.987077713012695 C 7.015172958374023 5.987077713012695 9.701501846313477 5.987077713012695 9.701501846313477 5.987077713012695 C 9.701501846313477 5.987077713012695 10.02328109741211 7.109499931335449 10.02328109741211 7.109499931335449 C 10.467369079589844 6.3994035720825195 11.429101943969727 5.605593681335449 13.250171661376953 5.605593681335449 C 15.470783233642578 5.605593681335449 17.00603675842285 6.900583267211914 17.00603675842285 10.095649719238281 C 17.00603675842285 10.095649719238281 17.00603675842285 16.978517532348633 17.00603675842285 16.978517532348633 C 17.00603675842285 16.978517532348633 14.006511688232422 16.978517532348633 14.006511688232422 16.978517532348633 C 14.006511688232422 16.978517532348633 14.006511688232422 10.577369689941406 14.006511688232422 10.577369689941406 C 14.006511688232422 9.179574012756348 13.040658950805664 8.225680351257324 11.819202423095703 8.225680351257324 C 10.886480331420898 8.225680351257324 10.347549438476562 8.868952751159668 10.103275299072266 9.490195274353027 C 10.014183044433594 9.711962699890137 9.991867065429688 10.022951126098633 9.991867065429688 10.333572387695312 C 9.991867065429688 10.333572387695312 9.991867065429688 16.978517532348633 9.991867065429688 16.978517532348633 C 9.991867065429688 16.978517532348633 7.015172958374023 16.978517532348633 7.015172958374023 16.978517532348633 C 7.015172958374023 16.978517532348633 7.015172958374023 5.987077713012695 7.015172958374023 5.987077713012695 Z"/></g></svg>