<svg version="1.1" xmlns="http://www.w3.org/2000/svg" xmlns:xlink="http://www.w3.org/1999/xlink" width="20" height="15"><defs/><g><path fill="rgb(255,255,255)" stroke="none" paint-order="stroke fill markers" fill-rule="evenodd" d=" M 2.608684539794922 2.1780033111572266 C 3.096202850341797 2.4482364654541016 8.846858978271484 6.188542366027832 9.097999572753906 6.327330589294434 C 9.349483489990234 6.466485977172852 9.675039291381836 6.533677101135254 10.003084182739258 6.533677101135254 C 10.33112907409668 6.533677101135254 10.656599044799805 6.466485977172852 10.908082962036133 6.327330589294434 C 11.159223556518555 6.188542366027832 16.909879684448242 2.4482364654541016 17.397397994995117 2.1780033111572266 C 17.8852596282959 1.9077701568603516 18.346942901611328 1.0596199035644531 17.450698852539062 1.0596199035644531 C 17.450698852539062 1.0596199035644531 2.5552978515625 1.0596199035644531 2.5552978515625 1.0596199035644531 C 1.6597404479980469 1.0596199035644531 2.1208229064941406 1.9077701568603516 2.608684539794922 2.1780033111572266 Z M 17.603992462158203 4.237796783447266 C 17.05004119873047 4.536301612854004 11.247200012207031 8.205010414123535 10.908082962036133 8.387491226196289 C 10.568622589111328 8.57033920288086 10.33112907409668 8.59383773803711 10.003084182739258 8.59383773803711 C 9.675039291381836 8.59383773803711 9.437459945678711 8.57033920288086 9.097999572753906 8.387491226196289 C 8.758882522583008 8.205010414123535 2.9563846588134766 4.536301612854004 2.402090072631836 4.237796783447266 C 2.012247085571289 4.028145790100098 2.0155086517333984 4.27414608001709 2.0155086517333984 4.463970184326172 C 2.0155086517333984 4.653794288635254 2.0155086517333984 12.01948356628418 2.0155086517333984 12.01948356628418 C 2.0155086517333984 12.451269149780273 2.573150634765625 13.007156372070312 3.0059947967529297 13.007156372070312 C 3.0059947967529297 13.007156372070312 17.000173568725586 13.007156372070312 17.000173568725586 13.007156372070312 C 17.432931900024414 13.007156372070312 17.99057388305664 12.451269149780273 17.99057388305664 12.01948356628418 C 17.99057388305664 12.01948356628418 17.99057388305664 4.653794288635254 17.99057388305664 4.463970184326172 C 17.99057388305664 4.27414608001709 17.994264602661133 4.028145790100098 17.603992462158203 4.237796783447266 Z"/></g></svg>