<svg version="1.1" xmlns="http://www.w3.org/2000/svg" xmlns:xlink="http://www.w3.org/1999/xlink" width="19" height="18"><defs/><g><path fill="rgb(255,255,255)" stroke="none" paint-order="stroke fill markers" fill-rule="evenodd" d=" M 17.98436164855957 3.6555280685424805 C 17.35968589782715 3.9367761611938477 16.688919067382812 4.126967430114746 15.984678268432617 4.212149620056152 C 16.70368194580078 3.774489402770996 17.255573272705078 3.0816497802734375 17.515640258789062 2.2562637329101562 C 16.842727661132812 2.6616134643554688 16.09771728515625 2.95571231842041 15.304899215698242 3.1143274307250977 C 14.66975212097168 2.426995277404785 13.764839172363281 1.9981470108032227 12.763710021972656 1.9981470108032227 C 10.841102600097656 1.9981470108032227 9.282331466674805 3.5806264877319336 9.282331466674805 5.532840728759766 C 9.282331466674805 5.810050010681152 9.312973022460938 6.079916000366211 9.372367858886719 6.338399887084961 C 6.479272842407227 6.191166877746582 3.913278579711914 4.783824920654297 2.1967506408691406 2.644723892211914 C 1.8970298767089844 3.16719913482666 1.7251968383789062 3.7741222381591797 1.7251968383789062 4.422167778015137 C 1.7251968383789062 5.648497581481934 2.3397445678710938 6.730164527893066 3.2738399505615234 7.3642578125 C 2.7036666870117188 7.346266746520996 2.166452407836914 7.187284469604492 1.6970443725585938 6.922558784484863 C 1.6967010498046875 6.9372453689575195 1.6967010498046875 6.951564788818359 1.6967010498046875 6.966618537902832 C 1.6967010498046875 8.679808616638184 2.897043228149414 10.10844612121582 4.489374160766602 10.433019638061523 C 4.197549819946289 10.51416301727295 3.889932632446289 10.557121276855469 3.572101593017578 10.557121276855469 C 3.34808349609375 10.557121276855469 3.1300735473632812 10.535091400146484 2.9172134399414062 10.49360179901123 C 3.3603572845458984 11.898006439208984 4.646444320678711 12.920559883117676 6.1695098876953125 12.948831558227539 C 4.977836608886719 13.897217750549316 3.4770870208740234 14.462284088134766 1.8458747863769531 14.462284088134766 C 1.5648651123046875 14.462284088134766 1.2878894805908203 14.445394515991211 1.0155487060546875 14.411982536315918 C 2.555866241455078 15.415810585021973 4.3856048583984375 16.001070976257324 6.3521575927734375 16.001070976257324 C 12.755470275878906 16.001070976257324 16.257362365722656 10.614031791687012 16.257362365722656 5.942963600158691 C 16.257362365722656 5.78985595703125 16.254100799560547 5.637115478515625 16.247234344482422 5.485109329223633 C 16.927356719970703 4.987234115600586 17.51744270324707 4.364522933959961 17.98436164855957 3.6555280685424805 Z"/></g></svg>